<svg width="74" height="144" viewBox="0 0 74 144" fill="none" xmlns="http://www.w3.org/2000/svg">
<g clip-path="url(#clip0_83_579)">
<path d="M0.548478 95.7721C0.439839 95.7721 0.351929 95.6837 0.351929 95.5744V39.8478C0.351929 25.8245 11.6909 14.4159 25.6287 14.4159H68.307C68.4156 14.4159 68.5035 14.5043 68.5035 14.6136C68.5035 14.723 68.4156 20.1508 68.307 20.1508L25.6287 14.8114C11.9078 14.8114 0.745027 26.0427 0.745027 39.8478V95.5744C0.745027 95.6837 0.657117 95.7721 0.548478 95.7721Z" fill="#3F3D56"/>
<path d="M68.4562 0C68.5649 0 68.6528 0.0884502 68.6528 0.197756V55.9243C68.6528 69.9476 57.3138 81.3562 43.376 81.3562H0.69777C0.589131 81.3562 0.501221 81.2678 0.501221 81.1585C0.501221 81.0492 0.589131 80.9607 0.69777 80.9607H43.376C57.0969 80.9607 68.2597 69.7294 68.2597 55.9243V0.197756C68.2597 0.0884502 68.3476 0 68.4562 0Z" fill="#3F3D56"/>
<path d="M48.6612 52.8606C48.6612 52.006 48.9992 51.1698 49.6342 50.5474L58.5871 41.7725C58.8207 40.8782 59.2672 40.0418 59.8791 39.3522C60.6187 38.4962 61.5262 37.8754 62.4346 37.6042C63.3588 37.3281 64.1755 37.4453 64.7345 37.9341C65.8748 38.9312 65.5516 41.1907 64.0143 42.9701C63.422 43.6752 62.6613 44.2364 61.8141 44.5935L53.6868 53.0226L58.161 59.8444C59.0274 60.8608 59.2194 62.2679 58.6549 63.5062C58.1096 64.7026 56.9694 65.4478 55.6792 65.4511C54.2991 65.4546 53.0772 64.6234 52.5659 63.3337L48.8913 54.0622C48.7364 53.6713 48.6612 53.2638 48.6612 52.8606Z" fill="#FFB6B6"/>
<path d="M56.172 44.8703C60.0798 44.8703 63.2477 41.6829 63.2477 37.7511C63.2477 33.8192 60.0798 30.6319 56.172 30.6319C52.2641 30.6319 49.0962 33.8192 49.0962 37.7511C49.0962 41.6829 52.2641 44.8703 56.172 44.8703Z" fill="#3F3D56"/>
<path d="M59.8573 56.8038L54.5906 60.8431L61.2723 65.4606L64.6251 58.2294L59.8573 56.8038Z" fill="#FFB6B6"/>
<path d="M62.73 60.2791C65.8093 60.2791 68.3055 57.7675 68.3055 54.6694C68.3055 51.5712 65.8093 49.0596 62.73 49.0596C59.6507 49.0596 57.1545 51.5712 57.1545 54.6694C57.1545 57.7675 59.6507 60.2791 62.73 60.2791Z" fill="#FFB6B6"/>
<path d="M63.1636 60.9556C63.1636 60.9556 64.42 56.909 63.6081 56.1441C62.7962 55.3793 62.8221 56.1701 62.8221 56.1701L63.8518 52.2707C63.8518 52.2707 63.3611 50.005 60.1109 49.6934C60.1109 49.6934 61.2655 47.4896 62.9437 47.8533C64.6219 48.2169 64.728 48.6325 65.4409 48.4925C66.1538 48.3525 67.6312 49.6541 67.6312 49.6541C67.6312 49.6541 68.3879 49.0328 68.3022 49.7995C68.2164 50.5662 69.0206 51.8193 69.0206 51.8193C69.0206 51.8193 69.4784 51.5321 69.3524 52.3364C69.2263 53.1407 69.8187 53.5635 69.8187 53.5635C69.8187 53.5635 69.0345 54.073 69.2861 54.4749C69.5376 54.8768 70.5431 55.1928 70.1631 55.6012C69.783 56.0097 70.0684 56.9549 68.7819 57.9522C67.4953 58.9495 63.1636 60.9556 63.1636 60.9556Z" fill="#2F2E41"/>
<path d="M66.4668 134.077L66.4199 134.028L53.2584 120.27C51.9845 118.938 51.3678 117.12 51.5663 115.283L52.2528 108.926L58.9184 110.145L59.1733 114.153L70.369 132.424L66.4668 134.077Z" fill="#FFB6B6"/>
<path d="M68.0661 144C67.8538 144 67.644 143.946 67.4526 143.839C66.9893 143.58 66.7334 143.051 66.816 142.525L67.2736 139.61L64.9111 134.459L65.5342 132.579L69.1012 132.38L70.2901 131.183L71.6216 131.416C72.4182 131.556 73.0814 132.054 73.4411 132.782C73.8006 133.511 73.7942 134.343 73.4234 135.066L69.1949 143.309C69.0362 143.618 68.7663 143.844 68.435 143.945C68.3133 143.982 68.1893 144 68.0661 144Z" fill="#2F2E41"/>
<path d="M61.3805 95.5946L58.8253 111.811L46.4427 117.743L44.4772 101.923L61.3805 95.5946Z" fill="#2F2E41"/>
<path d="M54.2807 129.331L54.2339 129.282L41.0724 115.523C39.7985 114.192 39.1818 112.374 39.3802 110.537L40.0668 104.18L46.7324 105.399L46.9873 109.407L58.1829 127.677L54.2807 129.331Z" fill="#FFB6B6"/>
<path d="M55.88 139.254C55.6677 139.254 55.4579 139.199 55.2666 139.093C54.8032 138.833 54.5473 138.305 54.6299 137.778L55.0875 134.863L52.725 129.713L53.3481 127.833L56.9151 127.633L58.104 126.437L59.4355 126.67C60.2321 126.81 60.8953 127.307 61.255 128.036C61.6145 128.764 61.6081 129.597 61.2373 130.32L57.0088 138.562C56.8501 138.872 56.5802 139.098 56.2489 139.198C56.1272 139.236 56.0032 139.254 55.88 139.254Z" fill="#2F2E41"/>
<path d="M47.2954 90.1625L45.9122 93.9479L39.701 104.155C39.5184 104.454 39.4891 104.813 39.6204 105.139C39.7516 105.464 40.0209 105.701 40.3591 105.788L54.0673 109.325L60.4133 100.359C62.2235 97.8009 63.16 94.67 63.0544 91.5327L47.2954 90.1625Z" fill="#2F2E41"/>
<path d="M61.4435 94.0126H45.7132L45.722 93.9056L47.7081 69.6854C47.9683 66.5111 49.5998 63.6357 52.1842 61.7966L52.2114 61.7772L62.9637 62.1779L60.6293 84.0078L63.7335 90.2956C64.1299 91.0988 64.0863 92.0333 63.6167 92.7953C63.1472 93.5576 62.3347 94.0126 61.4435 94.0126Z" fill="#6C63FF"/>
<path d="M57.1416 66.6497C56.2439 66.6499 55.3685 66.2833 54.7214 65.5958L47.9013 58.347C47.0044 57.3938 46.7687 56.0035 47.3007 54.805L52.3964 43.322C52.2847 42.4043 52.3924 41.4611 52.7081 40.5927C53.0807 39.5226 53.6959 38.6081 54.4402 38.0184C55.1978 37.4179 55.9996 37.2229 56.6984 37.4697C58.1244 37.9722 58.6541 40.1915 57.8793 42.4169C57.5879 43.2919 57.0871 44.0965 56.4311 44.7436L51.9755 55.598L58.6388 60.2732C59.8169 60.8953 60.5123 62.131 60.4427 63.492C60.3755 64.8065 59.5897 65.923 58.392 66.4056C57.9845 66.5699 57.5606 66.6497 57.1416 66.6497Z" fill="#FFB6B6"/>
<path d="M7.8739 45.2233C9.59621 47.2981 10.2647 50.0429 10.7242 52.7064C10.8921 53.68 11.0391 54.6573 11.165 55.6373C11.6347 59.2956 11.7927 63.1139 10.523 66.5742C10.2014 67.4506 9.87545 68.6311 10.6429 69.1569C11.2525 69.5746 12.1444 69.1409 12.4763 68.4782C12.8083 67.8155 12.7422 67.0305 12.6683 66.2921C11.8604 67.1652 12.1125 68.7818 13.1473 69.364C14.1821 69.9461 15.683 69.3157 15.9992 68.166C16.164 69.3927 17.3604 70.3862 18.5887 70.3163C19.817 70.2464 20.8944 69.1235 20.9206 67.886C20.2838 68.5667 20.5987 69.7997 21.3892 70.2911C22.1798 70.7824 23.2335 70.6443 24.0444 70.1877C24.8552 69.7311 25.476 69.0047 26.0789 68.2933C25.284 68.7874 25.0979 70.0379 25.7141 70.7445C26.3302 71.4511 27.5867 71.4282 28.177 70.6996C28.6635 70.0991 28.6609 69.2226 28.4235 68.4857C28.1861 67.7487 27.7492 67.0959 27.4201 66.3955C25.9131 63.1882 26.8007 59.3844 28.0457 56.0652C29.2908 52.7461 30.8969 49.4081 30.7624 45.8631" fill="white"/>
<path d="M7.76969 45.3282C9.03269 46.8641 9.72062 48.7658 10.1709 50.6843C10.6588 52.7632 10.9632 54.9034 11.1781 57.0269C11.3955 59.1759 11.4676 61.3635 11.1437 63.5058C10.9875 64.5391 10.735 65.5522 10.3809 66.5348C10.1367 67.2123 9.84213 68.0645 10.1438 68.7707C10.4995 69.6034 11.4955 69.6161 12.134 69.1157C12.9852 68.4486 12.9118 67.2601 12.8157 66.2921C12.8041 66.175 12.6571 66.083 12.5641 66.1873C11.8998 66.9319 11.8811 68.1151 12.453 68.9224C13.0592 69.7781 14.1841 69.9327 15.0829 69.4647C15.5872 69.2022 15.9792 68.7554 16.1414 68.2055H15.8571C16.054 69.5127 17.3313 70.5788 18.6568 70.4597C19.9544 70.3431 21.02 69.1889 21.0681 67.886C21.0727 67.761 20.9013 67.6856 20.8164 67.7811C20.3877 68.2634 20.3413 68.9404 20.5805 69.5259C20.8448 70.1729 21.4156 70.5951 22.0965 70.7107C23.8481 71.0083 25.1563 69.6093 26.1832 68.3982C26.2854 68.2776 26.1539 68.0678 26.0045 68.1653C25.3482 68.5938 25.0588 69.4475 25.2649 70.2015C25.4816 70.9941 26.2505 71.4602 27.0482 71.4045C27.9452 71.3418 28.5822 70.6796 28.7025 69.7948C28.8482 68.7227 28.3028 67.7675 27.8197 66.8581C25.5225 62.5337 27.549 57.7612 29.1647 53.5878C30.1205 51.119 31.0007 48.5491 30.9098 45.8631C30.9034 45.6727 30.6085 45.6718 30.615 45.8631C30.766 50.3242 28.28 54.2301 27.1202 58.4007C26.5699 60.3795 26.2627 62.4911 26.6603 64.5292C26.8582 65.5431 26.8949 66.6089 27.3775 67.5133C27.8329 68.3668 28.6893 69.2422 28.2926 70.2159C27.924 71.1206 26.6905 71.4118 25.9497 70.7712C25.2432 70.1602 25.3944 68.9169 26.1533 68.4214L25.9747 68.1885C25.0789 69.245 24.3606 69.1071 22.8568 69.0954C22.2098 69.0903 21.2487 70.1669 20.9312 69.5812C20.6616 69.084 20.6334 68.4313 21.0249 67.9908L20.7732 67.886C20.7305 69.0438 19.7505 70.0982 18.5887 70.168C17.4039 70.2391 16.3164 69.2884 16.1414 68.1266C16.1184 67.9738 15.8951 67.9977 15.8571 68.1266C15.544 69.188 14.1635 69.7885 13.1958 69.2207C12.252 68.6669 12.0506 67.2063 12.7725 66.397L12.5209 66.2921C12.6095 67.1843 12.7218 68.3598 11.8783 68.9389C11.5583 69.1585 11.1261 69.2678 10.7718 69.0635C10.4265 68.8643 10.8629 68.2859 10.8673 67.9088C10.8772 67.0599 10.7544 66.4353 10.9847 65.6341C11.2599 64.6767 11.4369 63.693 11.5407 62.7024C11.7526 60.6809 11.652 58.6383 11.4301 56.6223C11.2099 54.6209 10.9215 52.6075 10.4647 50.6457C10.0022 48.6598 9.28397 46.7064 7.97816 45.1185C7.85711 44.9713 7.64956 45.1821 7.76969 45.3282Z" fill="#3F3D56"/>
<path d="M19.3189 47.7537C13.3161 47.7537 6.93634 46.7487 6.93634 44.8863C6.93634 43.0238 13.3161 42.0188 19.3189 42.0188C25.3218 42.0188 31.7016 43.0238 31.7016 44.8863C31.7016 46.7487 25.3218 47.7537 19.3189 47.7537ZM19.3189 42.4143C12.2533 42.4143 7.32944 43.7171 7.32944 44.8863C7.32944 46.0554 12.2533 47.3582 19.3189 47.3582C26.3846 47.3582 31.3085 46.0554 31.3085 44.8863C31.3085 43.7171 26.3846 42.4143 19.3189 42.4143Z" fill="#3F3D56"/>
<path d="M5.57582 50.5318C5.51421 50.5318 5.4524 50.5283 5.39079 50.5211L1.57247 50.0781C0.765739 49.9845 0.142693 49.2979 0.123115 48.4808L0.000464454 43.3662C-0.0106681 42.8963 0.17878 42.4431 0.520052 42.1223C0.861518 41.8015 1.32448 41.6428 1.78918 41.686L7.51771 42.2222C8.16398 42.2828 8.71428 42.7221 8.91966 43.3417L9.84002 46.1199C10.0527 46.7622 9.84655 47.4828 9.32715 47.9128L6.61922 50.1561C6.32574 50.3993 5.95357 50.5318 5.57582 50.5318Z" fill="#3F3D56"/>
</g>
<defs>
<clipPath id="clip0_83_579">
<rect width="73.7062" height="144" fill="white"/>
</clipPath>
</defs>
</svg>
