<svg width="233" height="88" viewBox="0 0 233 88" fill="none" xmlns="http://www.w3.org/2000/svg">
<g clip-path="url(#clip0_83_333)">
<path d="M6.68597 77.6782C7.50447 77.9681 8.38327 78.0407 9.23771 77.8891C10.0922 77.7374 10.8934 77.3666 11.5644 76.8124C13.273 75.3673 13.8088 72.9874 14.2446 70.7832L15.5339 64.2631L12.8347 66.1358C10.8934 67.4825 8.90857 68.8724 7.56459 70.823C6.22062 72.7736 5.63428 75.4365 6.71381 77.5473" fill="#E6E6E6"/>
<path d="M7.10277 86.0258C6.76303 83.5319 6.41348 81.0058 6.65236 78.4852C6.86405 76.2466 7.54191 74.0605 8.92192 72.2673C9.65443 71.3174 10.5458 70.5036 11.5558 69.8624C11.8192 69.695 12.0616 70.1154 11.7994 70.2822C10.0516 71.395 8.69979 73.0384 7.93876 74.9753C7.09826 77.1291 6.96331 79.4771 7.10808 81.7652C7.19559 83.1488 7.38154 84.5234 7.56829 85.8963C7.58304 85.9584 7.57383 86.0238 7.54254 86.0793C7.51124 86.1349 7.46019 86.1763 7.39971 86.1953C7.33801 86.2121 7.27225 86.2036 7.21669 86.1719C7.16113 86.1401 7.12026 86.0875 7.10293 86.0255L7.10277 86.0258Z" fill="#F2F2F2"/>
<path d="M9.54816 82.0242C9.89914 82.5618 10.3817 82.9994 10.9492 83.2946C11.5167 83.5899 12.1502 83.7328 12.7885 83.7098C14.4293 83.6313 15.7966 82.478 17.0273 81.3827L20.6684 78.1436L18.2587 78.0274C16.5258 77.9438 14.7481 77.8653 13.0975 78.4044C11.447 78.9434 9.92474 80.2388 9.62297 81.9602" fill="#E6E6E6"/>
<path d="M6.14246 87.4594C7.77808 84.5435 9.67509 81.3027 13.065 80.2669C14.0075 79.9799 14.9958 79.8771 15.9766 79.964C16.2858 79.9909 16.2086 80.471 15.9 80.4442C14.2559 80.3067 12.615 80.7441 11.2534 81.6828C9.97352 82.6185 8.88842 83.7983 8.05974 85.1553C7.53082 85.9668 7.0571 86.8127 6.58337 87.6574C6.432 87.9275 5.98932 87.7325 6.14246 87.4594Z" fill="#F2F2F2"/>
<path d="M156.299 73.8667C157.426 74.2659 158.636 74.3659 159.813 74.157C160.989 73.9482 162.093 73.4376 163.017 72.6744C165.369 70.6844 166.107 67.4071 166.707 64.3717L168.483 55.3932L164.766 57.972C162.093 59.8265 159.359 61.7405 157.509 64.4266C155.658 67.1127 154.85 70.7797 156.337 73.6863" fill="#E6E6E6"/>
<path d="M156.873 85.3618C156.405 81.9276 155.923 78.449 156.252 74.9779C156.544 71.8952 157.477 68.8848 159.378 66.4155C160.386 65.1075 161.614 63.9868 163.005 63.1038C163.367 62.8732 163.701 63.4522 163.34 63.6818C160.933 65.2143 159.072 67.4773 158.024 70.1445C156.866 73.1105 156.681 76.3438 156.88 79.4946C157 81.4 157.257 83.2929 157.514 85.1835C157.534 85.269 157.521 85.3591 157.478 85.4355C157.435 85.512 157.365 85.5691 157.282 85.5953C157.197 85.6183 157.106 85.6067 157.03 85.5629C156.953 85.5191 156.897 85.4467 156.873 85.3614L156.873 85.3618Z" fill="#F2F2F2"/>
<path d="M160.24 79.8513C160.723 80.5917 161.388 81.1942 162.169 81.6008C162.951 82.0073 163.823 82.2042 164.702 82.1724C166.962 82.0644 168.845 80.4762 170.539 78.9679L175.553 74.5074L172.235 74.3474C169.849 74.2323 167.401 74.1242 165.128 74.8666C162.855 75.6089 160.759 77.3926 160.343 79.7631" fill="#E6E6E6"/>
<path d="M155.55 87.3359C157.803 83.3205 160.415 78.8579 165.083 77.4314C166.381 77.0362 167.742 76.8946 169.092 77.0143C169.518 77.0514 169.412 77.7124 168.987 77.6756C166.723 77.4862 164.463 78.0886 162.588 79.3812C160.784 80.6186 159.379 82.3389 158.19 84.1631C157.462 85.2806 156.81 86.4454 156.157 87.6087C155.949 87.9805 155.339 87.712 155.55 87.3359Z" fill="#F2F2F2"/>
<path d="M135.189 13.4479C134.951 13.3436 134.76 13.155 134.651 12.918C134.543 12.6809 134.525 12.412 134.6 12.1623C134.613 12.124 134.62 12.0844 134.623 12.0443C134.63 11.9299 134.6 11.8163 134.538 11.7204C134.476 11.6244 134.385 11.5512 134.278 11.5115C134.171 11.4718 134.055 11.4679 133.946 11.5002C133.837 11.5325 133.741 11.5993 133.672 11.6908C133.649 11.7233 133.629 11.7584 133.614 11.7956C133.51 12.0349 133.323 12.2275 133.088 12.3368C132.852 12.4461 132.586 12.4644 132.338 12.3882C132.3 12.3759 132.26 12.3682 132.221 12.3651C132.107 12.3582 131.994 12.3882 131.899 12.4509C131.804 12.5135 131.731 12.6054 131.692 12.7129C131.652 12.8204 131.649 12.9379 131.681 13.0478C131.713 13.1578 131.779 13.2544 131.87 13.3234C131.902 13.3471 131.937 13.3669 131.974 13.3824C132.211 13.4867 132.402 13.6753 132.511 13.9123C132.619 14.1494 132.638 14.4183 132.562 14.668C132.55 14.7063 132.542 14.7459 132.539 14.786C132.532 14.9003 132.562 15.0139 132.624 15.1099C132.686 15.2059 132.778 15.2791 132.884 15.3188C132.991 15.3584 133.107 15.3624 133.217 15.3301C133.326 15.2978 133.422 15.231 133.49 15.1394C133.514 15.107 133.533 15.0718 133.549 15.0347C133.652 14.7954 133.839 14.6028 134.075 14.4935C134.31 14.3842 134.577 14.3659 134.825 14.442C134.863 14.4543 134.902 14.4621 134.942 14.4652C135.055 14.4721 135.168 14.4421 135.263 14.3794C135.358 14.3168 135.431 14.2249 135.471 14.1174C135.51 14.0098 135.514 13.8924 135.482 13.7824C135.45 13.6725 135.383 13.5759 135.293 13.5069C135.26 13.4831 135.225 13.4633 135.189 13.4479Z" fill="#CBCBCB"/>
<path d="M155.3 60.6321C155.062 60.5278 154.871 60.3393 154.762 60.1022C154.654 59.8652 154.636 59.5962 154.711 59.3465C154.724 59.3082 154.731 59.2686 154.734 59.2285C154.741 59.1141 154.711 59.0006 154.649 58.9046C154.587 58.8086 154.496 58.7354 154.389 58.6957C154.282 58.6561 154.166 58.6521 154.057 58.6844C153.948 58.7167 153.852 58.7835 153.783 58.875C153.76 58.9075 153.74 58.9427 153.725 58.9798C153.621 59.2191 153.434 59.4117 153.199 59.521C152.963 59.6303 152.697 59.6486 152.449 59.5725C152.411 59.5601 152.371 59.5524 152.332 59.5493C152.218 59.5424 152.105 59.5724 152.01 59.6351C151.915 59.6977 151.842 59.7896 151.803 59.8971C151.763 60.0046 151.759 60.1221 151.792 60.232C151.824 60.342 151.89 60.4386 151.981 60.5076C152.013 60.5313 152.048 60.5512 152.085 60.5666C152.322 60.6709 152.513 60.8595 152.622 61.0965C152.73 61.3336 152.749 61.6025 152.673 61.8522C152.661 61.8905 152.653 61.9301 152.65 61.9702C152.643 62.0846 152.673 62.1982 152.735 62.2941C152.797 62.3901 152.888 62.4633 152.995 62.503C153.102 62.5427 153.218 62.5466 153.328 62.5143C153.437 62.482 153.533 62.4152 153.601 62.3237C153.625 62.2912 153.644 62.2561 153.66 62.2189C153.763 61.9796 153.95 61.787 154.186 61.6777C154.421 61.5684 154.688 61.5501 154.936 61.6262C154.974 61.6386 155.013 61.6463 155.053 61.6494C155.166 61.6563 155.279 61.6263 155.374 61.5636C155.469 61.501 155.542 61.4091 155.581 61.3016C155.621 61.1941 155.625 61.0766 155.593 60.9667C155.561 60.8567 155.494 60.7601 155.404 60.6911C155.371 60.6674 155.336 60.6476 155.3 60.6321Z" fill="#F1F1F1"/>
<path d="M49.8606 33.1321C49.6231 33.0278 49.4319 32.8392 49.3234 32.6022C49.215 32.3651 49.1968 32.0962 49.2724 31.8465C49.2846 31.8082 49.2923 31.7686 49.2953 31.7285C49.3022 31.6141 49.2724 31.5006 49.2102 31.4046C49.1481 31.3086 49.0569 31.2354 48.9502 31.1957C48.8434 31.156 48.7269 31.1521 48.6178 31.1844C48.5086 31.2167 48.4127 31.2835 48.3442 31.375C48.3207 31.4075 48.301 31.4427 48.2857 31.4798C48.1822 31.7191 47.995 31.9117 47.7598 32.021C47.5245 32.1303 47.2576 32.1486 47.0098 32.0725C46.9718 32.0601 46.9325 32.0524 46.8927 32.0493C46.7791 32.0424 46.6664 32.0724 46.5712 32.1351C46.4759 32.1977 46.4032 32.2896 46.3639 32.3971C46.3245 32.5046 46.3205 32.6221 46.3526 32.732C46.3847 32.842 46.451 32.9386 46.5418 33.0076C46.5741 33.0313 46.6089 33.0512 46.6458 33.0666C46.8833 33.1709 47.0745 33.3595 47.183 33.5965C47.2914 33.8336 47.3096 34.1025 47.234 34.3522C47.2218 34.3905 47.2141 34.4301 47.2111 34.4702C47.2041 34.5846 47.234 34.6981 47.2962 34.7941C47.3583 34.8901 47.4495 34.9633 47.5562 35.003C47.663 35.0427 47.7795 35.0466 47.8886 35.0143C47.9978 34.982 48.0937 34.9152 48.1621 34.8237C48.1857 34.7912 48.2054 34.756 48.2207 34.7189C48.3242 34.4796 48.5114 34.287 48.7466 34.1777C48.9819 34.0684 49.2488 34.0501 49.4966 34.1262C49.5346 34.1386 49.5739 34.1463 49.6137 34.1494C49.7273 34.1563 49.84 34.1263 49.9352 34.0636C50.0305 34.001 50.1032 33.9091 50.1426 33.8016C50.1819 33.6941 50.1859 33.5766 50.1538 33.4667C50.1217 33.3567 50.0554 33.2601 49.9646 33.1911C49.9323 33.1674 49.8975 33.1476 49.8606 33.1321Z" fill="#F1F1F1"/>
<path d="M93.8475 16.2105C94.7995 16.2105 95.5713 15.4329 95.5713 14.4737C95.5713 13.5144 94.7995 12.7368 93.8475 12.7368C92.8955 12.7368 92.1237 13.5144 92.1237 14.4737C92.1237 15.4329 92.8955 16.2105 93.8475 16.2105Z" fill="#F1F1F1"/>
<path d="M185.783 11.5789C186.735 11.5789 187.507 10.8013 187.507 9.84208C187.507 8.88285 186.735 8.10524 185.783 8.10524C184.831 8.10524 184.06 8.88285 184.06 9.84208C184.06 10.8013 184.831 11.5789 185.783 11.5789Z" fill="#6C63FF"/>
<path d="M51.9017 3.47365C52.8538 3.47365 53.6255 2.69604 53.6255 1.73681C53.6255 0.77758 52.8538 -3.05176e-05 51.9017 -3.05176e-05C50.9497 -3.05176e-05 50.1779 0.77758 50.1779 1.73681C50.1779 2.69604 50.9497 3.47365 51.9017 3.47365Z" fill="#CBCBCB"/>
<path d="M45.2726 82.4104C52.1062 82.4104 57.6459 76.8288 57.6459 69.9436C57.6459 63.0583 52.1062 57.4767 45.2726 57.4767C38.4391 57.4767 32.8994 63.0583 32.8994 69.9436C32.8994 76.8288 38.4391 82.4104 45.2726 82.4104Z" fill="#2F2E41"/>
<path d="M43.3932 79.7277H39.6342V86.5135H43.3932V79.7277Z" fill="#2F2E41"/>
<path d="M50.9111 79.7277H47.1521V86.5135H50.9111V79.7277Z" fill="#2F2E41"/>
<path d="M42.7667 87.7759C44.4967 87.7759 45.8992 87.246 45.8992 86.5924C45.8992 85.9387 44.4967 85.4088 42.7667 85.4088C41.0367 85.4088 39.6342 85.9387 39.6342 86.5924C39.6342 87.246 41.0367 87.7759 42.7667 87.7759Z" fill="#2F2E41"/>
<path d="M50.2846 87.6181C52.0146 87.6181 53.4171 87.0882 53.4171 86.4346C53.4171 85.7809 52.0146 85.251 50.2846 85.251C48.5546 85.251 47.1521 85.7809 47.1521 86.4346C47.1521 87.0882 48.5546 87.6181 50.2846 87.6181Z" fill="#2F2E41"/>
<path d="M58.6061 64.4958C61.2857 61.7938 62.7755 58.9163 61.9337 58.0687C61.0918 57.2212 58.2371 58.7245 55.5574 61.4265C52.8778 64.1284 51.388 67.006 52.2298 67.8535C53.0717 68.7011 55.9265 67.1978 58.6061 64.4958Z" fill="#2F2E41"/>
<path d="M35.2994 68.722C36.1413 67.8744 34.6515 64.9969 31.9718 62.2949C29.2922 59.5929 26.4375 58.0896 25.5956 58.9372C24.7537 59.7848 26.2435 62.6623 28.9232 65.3643C31.6028 68.0663 34.4576 69.5696 35.2994 68.722Z" fill="#2F2E41"/>
<path d="M44.7521 72.4377C47.0876 72.4377 48.9809 70.5301 48.9809 68.1769C48.9809 65.8237 47.0876 63.916 44.7521 63.916C42.4166 63.916 40.5233 65.8237 40.5233 68.1769C40.5233 70.5301 42.4166 72.4377 44.7521 72.4377Z" fill="white"/>
<path d="M44.7521 69.5972C45.5306 69.5972 46.1617 68.9613 46.1617 68.1769C46.1617 67.3925 45.5306 66.7566 44.7521 66.7566C43.9735 66.7566 43.3424 67.3925 43.3424 68.1769C43.3424 68.9613 43.9735 69.5972 44.7521 69.5972Z" fill="#3F3D56"/>
<path d="M48.109 76.0571C48.2396 76.7801 48.0799 77.5258 47.6648 78.1301C47.2498 78.7344 46.6135 79.1479 45.8959 79.2795C45.1783 79.4111 44.4382 79.2502 43.8384 78.832C43.2386 78.4138 42.8282 77.7727 42.6976 77.0496L42.6966 77.0443C42.4261 75.5384 43.5816 75.0055 45.0762 74.7329C46.5708 74.4603 47.8385 74.5512 48.109 76.0571Z" fill="white"/>
<path d="M57.4054 83.0278C57.1269 83.0282 56.8599 83.1398 56.6629 83.3382C56.466 83.5366 56.3552 83.8056 56.3549 84.0862V86.297C56.3552 86.5777 56.466 86.8467 56.6629 87.0451C56.8599 87.2435 57.1269 87.3551 57.4054 87.3555H74.3072C74.5857 87.3551 74.8527 87.2435 75.0496 87.0451C75.2465 86.8467 75.3573 86.5777 75.3576 86.2971V84.0862C75.3573 83.8056 75.2465 83.5366 75.0496 83.3382C74.8527 83.1398 74.5857 83.0282 74.3072 83.0278H57.4054Z" fill="#E5E5E5"/>
<path d="M67.1253 81.5555C67.0206 81.4946 66.8963 81.4781 66.7796 81.5096C66.6629 81.5411 66.5634 81.6181 66.503 81.7235L65.8749 82.8196L65.2594 81.594C65.2048 81.4853 65.1097 81.403 64.9949 81.3651C64.8801 81.3271 64.7551 81.3367 64.6473 81.3916C64.5395 81.4466 64.4578 81.5424 64.4201 81.6581C64.3824 81.7738 64.3919 81.8998 64.4465 82.0084L64.9255 82.9623H64.7499V87.421H67.0927V82.9623H66.8452L67.292 82.1825C67.3524 82.0771 67.3688 81.9518 67.3375 81.8342C67.3062 81.7166 67.2299 81.6163 67.1253 81.5555Z" fill="#6C63FF"/>
<path d="M44.954 61.7664C42.7555 61.7642 40.57 61.4277 38.4711 60.7685C38.3253 60.7211 38.1981 60.6285 38.1077 60.5038C38.0172 60.3792 37.9683 60.2289 37.9677 60.0745V55C37.9679 54.8081 38.0437 54.6242 38.1783 54.4885C38.313 54.3528 38.4955 54.2765 38.686 54.2763H51.3271C51.5176 54.2765 51.7001 54.3528 51.8348 54.4885C51.9694 54.6242 52.0452 54.8081 52.0454 55V60.0715C52.0455 60.2273 51.9958 60.3789 51.9038 60.5039C51.8118 60.629 51.6822 60.7209 51.5343 60.7661C49.4014 61.4227 47.1843 61.7598 44.954 61.7664Z" fill="#6C63FF"/>
<path opacity="0.2" d="M51.9018 55V55.8481L45.0612 58.2652C44.9333 58.3097 44.794 58.3076 44.6675 58.2594L38.1114 55.7787V55C38.1118 54.8466 38.1725 54.6996 38.2802 54.5911C38.3878 54.4826 38.5337 54.4215 38.686 54.421H51.3272C51.4794 54.4215 51.6253 54.4826 51.733 54.5911C51.8406 54.6996 51.9013 54.8466 51.9018 55Z" fill="black"/>
<path d="M44.8697 57.2844C44.7835 57.2844 44.698 57.2689 44.6173 57.2384L34.8201 53.5318C34.6815 53.4794 34.5625 53.3852 34.4791 53.262C34.3958 53.1388 34.3522 52.9927 34.3544 52.8436C34.3566 52.6945 34.4044 52.5498 34.4913 52.4291C34.5783 52.3085 34.7 52.2178 34.84 52.1695L44.0582 48.9921C44.2071 48.9413 44.3684 48.9406 44.5178 48.9901L54.806 52.4456C54.9481 52.4933 55.0718 52.5846 55.1599 52.7067C55.248 52.8288 55.2959 52.9756 55.2971 53.1266C55.2982 53.2775 55.2525 53.425 55.1663 53.5485C55.0801 53.6719 54.9578 53.7652 54.8164 53.8151L45.1072 57.2438C45.0309 57.2707 44.9506 57.2844 44.8697 57.2844Z" fill="#6C63FF"/>
<path d="M35.9567 57.0263H35.6694V52.8289H44.432V53.1184H35.9567V57.0263Z" fill="#3F3D56"/>
<path d="M35.813 57.8947C36.1303 57.8947 36.3876 57.6355 36.3876 57.3158C36.3876 56.996 36.1303 56.7368 35.813 56.7368C35.4957 56.7368 35.2384 56.996 35.2384 57.3158C35.2384 57.6355 35.4957 57.8947 35.813 57.8947Z" fill="#3F3D56"/>
<path d="M116.81 82.4104C123.644 82.4104 129.183 76.8288 129.183 69.9436C129.183 63.0583 123.644 57.4767 116.81 57.4767C109.977 57.4767 104.437 63.0583 104.437 69.9436C104.437 76.8288 109.977 82.4104 116.81 82.4104Z" fill="#2F2E41"/>
<path d="M114.931 79.7277H111.172V86.5135H114.931V79.7277Z" fill="#2F2E41"/>
<path d="M122.449 79.7277H118.69V86.5135H122.449V79.7277Z" fill="#2F2E41"/>
<path d="M114.304 87.7759C116.034 87.7759 117.437 87.246 117.437 86.5924C117.437 85.9387 116.034 85.4088 114.304 85.4088C112.574 85.4088 111.172 85.9387 111.172 86.5924C111.172 87.246 112.574 87.7759 114.304 87.7759Z" fill="#2F2E41"/>
<path d="M121.822 87.6181C123.552 87.6181 124.955 87.0882 124.955 86.4346C124.955 85.7809 123.552 85.251 121.822 85.251C120.092 85.251 118.69 85.7809 118.69 86.4346C118.69 87.0882 120.092 87.6181 121.822 87.6181Z" fill="#2F2E41"/>
<path d="M130.144 64.4958C132.823 61.7938 134.313 58.9163 133.471 58.0687C132.629 57.2212 129.775 58.7245 127.095 61.4265C124.415 64.1285 122.926 67.0059 123.767 67.8535C124.609 68.7011 127.464 67.1978 130.144 64.4958Z" fill="#2F2E41"/>
<path d="M105.766 76.0679C107.928 72.9304 108.889 69.8325 107.911 69.1486C106.934 68.4647 104.388 70.4537 102.226 73.5912C100.064 76.7288 99.1036 79.8267 100.081 80.5106C101.059 81.1945 103.604 79.2055 105.766 76.0679Z" fill="#2F2E41"/>
<path d="M116.29 72.4377C118.625 72.4377 120.518 70.5301 120.518 68.1769C120.518 65.8237 118.625 63.916 116.29 63.916C113.954 63.916 112.061 65.8237 112.061 68.1769C112.061 70.5301 113.954 72.4377 116.29 72.4377Z" fill="white"/>
<path d="M117.726 68.1498C118.505 68.1498 119.136 67.5139 119.136 66.7295C119.136 65.9451 118.505 65.3092 117.726 65.3092C116.948 65.3092 116.317 65.9451 116.317 66.7295C116.317 67.5139 116.948 68.1498 117.726 68.1498Z" fill="#3F3D56"/>
<path d="M121.36 76.0571C121.775 77.5627 120.264 79.0054 117.985 79.2795C115.706 79.5536 113.522 78.5553 113.107 77.0496L113.106 77.0443C112.693 75.5384 114.455 75.0055 116.735 74.7329C119.014 74.4603 120.947 74.5512 121.36 76.0571Z" fill="white"/>
<path d="M112.481 62.6063C110.44 63.4306 108.288 63.94 106.097 64.1173C105.944 64.1281 105.791 64.09 105.661 64.0083C105.531 63.9267 105.43 63.8057 105.373 63.6626L103.494 58.9545C103.423 58.7764 103.425 58.5772 103.5 58.4007C103.574 58.2242 103.715 58.0848 103.892 58.013L115.621 53.2614C115.797 53.19 115.995 53.1922 116.17 53.2674C116.345 53.3427 116.484 53.4849 116.555 53.6628L118.433 58.3683C118.491 58.5127 118.501 58.672 118.462 58.8226C118.422 58.9733 118.336 59.1073 118.216 59.2048C116.48 60.6157 114.548 61.7618 112.481 62.6063Z" fill="#6C63FF"/>
<path opacity="0.2" d="M116.422 53.7168L116.736 54.5037L111.284 59.3177C111.182 59.4069 111.052 59.4574 110.917 59.4602L103.915 59.6229L103.627 58.9005C103.571 58.758 103.572 58.5988 103.632 58.4576C103.692 58.3165 103.805 58.205 103.946 58.1473L115.674 53.3956C115.816 53.3388 115.974 53.3407 116.114 53.4009C116.254 53.4611 116.364 53.5746 116.422 53.7168Z" fill="black"/>
<path d="M110.743 58.4796C110.663 58.512 110.578 58.5297 110.492 58.5318L100.03 58.7755C99.8817 58.7789 99.7363 58.7362 99.6133 58.6533C99.4904 58.5703 99.3959 58.4511 99.3427 58.312C99.2895 58.1728 99.2803 58.0206 99.3163 57.8759C99.3523 57.7313 99.4317 57.6014 99.5437 57.504L106.92 51.091C107.039 50.9879 107.189 50.9266 107.346 50.9164L118.17 50.2552C118.32 50.2461 118.469 50.2843 118.595 50.3644C118.722 50.4446 118.821 50.5628 118.878 50.7024C118.935 50.842 118.947 50.9961 118.913 51.143C118.879 51.2899 118.8 51.4224 118.687 51.5219L110.948 58.3527C110.888 58.4063 110.818 58.4492 110.743 58.4796Z" fill="#6C63FF"/>
<path d="M102.378 61.5904L102.111 61.6984L100.557 57.8041L108.687 54.5102L108.795 54.7788L100.931 57.9648L102.378 61.5904Z" fill="#3F3D56"/>
<path d="M102.352 62.4919C102.669 62.4919 102.927 62.2327 102.927 61.913C102.927 61.5932 102.669 61.334 102.352 61.334C102.035 61.334 101.777 61.5932 101.777 61.913C101.777 62.2327 102.035 62.4919 102.352 62.4919Z" fill="#3F3D56"/>
<path d="M163.915 40.4884C162.05 39.3157 160.371 37.8662 158.935 36.1888C158.836 36.0709 158.777 35.9245 158.766 35.7705C158.754 35.6166 158.792 35.4629 158.872 35.3316L161.534 31.0238C161.635 30.861 161.796 30.7452 161.981 30.7017C162.167 30.6583 162.362 30.6907 162.523 30.7919L173.255 37.5239C173.416 37.6255 173.531 37.7875 173.574 37.9744C173.617 38.1613 173.585 38.3577 173.485 38.5207L170.824 42.826C170.743 42.9583 170.621 43.0605 170.477 43.1177C170.333 43.1748 170.175 43.1839 170.026 43.1435C167.871 42.565 165.812 41.6704 163.915 40.4884Z" fill="#6C63FF"/>
<path opacity="0.2" d="M173.363 38.4442L172.918 39.1642L165.843 37.5732C165.711 37.5429 165.594 37.467 165.512 37.3587L161.247 31.7613L161.656 31.1003C161.737 30.9703 161.865 30.8778 162.014 30.843C162.162 30.8083 162.318 30.8341 162.447 30.9148L173.179 37.6468C173.308 37.7282 173.399 37.8578 173.434 38.0073C173.468 38.1567 173.443 38.3138 173.363 38.4442Z" fill="black"/>
<path d="M166.195 36.6386C166.122 36.5928 166.057 36.534 166.005 36.4652L159.632 28.1012C159.542 27.9829 159.49 27.8395 159.484 27.6905C159.478 27.5416 159.518 27.3943 159.598 27.2689C159.678 27.1436 159.794 27.0462 159.931 26.99C160.069 26.9339 160.219 26.9218 160.364 26.9554L169.856 29.1671C170.009 29.2033 170.146 29.2886 170.247 29.4102L177.168 37.8224C177.264 37.9386 177.321 38.082 177.331 38.2326C177.342 38.3831 177.306 38.5333 177.228 38.662C177.149 38.7908 177.033 38.8916 176.895 38.9505C176.757 39.0095 176.605 39.0235 176.459 38.9906L166.418 36.7307C166.339 36.7129 166.263 36.6817 166.195 36.6386Z" fill="#6C63FF"/>
<path d="M158.764 31.673L158.52 31.5199L160.722 27.9568L168.161 32.6234L168.009 32.8688L160.814 28.3554L158.764 31.673Z" fill="#3F3D56"/>
<path d="M158.49 32.4211C158.807 32.4211 159.065 32.1619 159.065 31.8422C159.065 31.5224 158.807 31.2632 158.49 31.2632C158.173 31.2632 157.915 31.5224 157.915 31.8422C157.915 32.1619 158.173 32.4211 158.49 32.4211Z" fill="#3F3D56"/>
<path d="M193.849 68.2262C200.683 68.2262 206.222 62.6446 206.222 55.7594C206.222 48.8741 200.683 43.2925 193.849 43.2925C187.015 43.2925 181.476 48.8741 181.476 55.7594C181.476 62.6446 187.015 68.2262 193.849 68.2262Z" fill="#2F2E41"/>
<path d="M202.427 62.2236L199.219 64.1986L202.731 69.9887L205.939 68.0137L202.427 62.2236Z" fill="#2F2E41"/>
<path d="M196.012 66.1736L192.805 68.1487L196.317 73.9387L199.524 71.9637L196.012 66.1736Z" fill="#2F2E41"/>
<path d="M203.919 70.7367C205.396 69.8277 206.318 68.6387 205.98 68.081C205.641 67.5232 204.17 67.808 202.694 68.7169C201.218 69.6259 200.296 70.8149 200.634 71.3727C200.972 71.9304 202.443 71.6457 203.919 70.7367Z" fill="#2F2E41"/>
<path d="M197.423 74.5521C198.899 73.6432 199.821 72.4541 199.483 71.8964C199.145 71.3386 197.674 71.6234 196.198 72.5324C194.722 73.4413 193.799 74.6304 194.138 75.1881C194.476 75.7459 195.947 75.4611 197.423 74.5521Z" fill="#2F2E41"/>
<path d="M186.892 53.6694C187.734 52.8218 186.244 49.9443 183.564 47.2423C180.885 44.5403 178.03 43.037 177.188 43.8846C176.346 44.7321 177.836 47.6097 180.516 50.3117C183.195 53.0137 186.05 54.517 186.892 53.6694Z" fill="#2F2E41"/>
<path d="M210.578 66.3263C211.556 65.6424 210.595 62.5445 208.433 59.407C206.271 56.2695 203.726 54.2804 202.748 54.9643C201.77 55.6483 202.731 58.7462 204.893 61.8837C207.055 65.0212 209.601 67.0103 210.578 66.3263Z" fill="#2F2E41"/>
<path d="M190.06 56.5166C192.396 56.5166 194.289 54.609 194.289 52.2558C194.289 49.9026 192.396 47.995 190.06 47.995C187.725 47.995 185.831 49.9026 185.831 52.2558C185.831 54.609 187.725 56.5166 190.06 56.5166Z" fill="white"/>
<path d="M188.624 52.2287C189.402 52.2287 190.033 51.5929 190.033 50.8085C190.033 50.0241 189.402 49.3882 188.624 49.3882C187.845 49.3882 187.214 50.0241 187.214 50.8085C187.214 51.5929 187.845 52.2287 188.624 52.2287Z" fill="#3F3D56"/>
<path d="M184.615 59.3633C183.813 60.6871 184.881 62.4779 187.001 63.3633C189.121 64.2487 191.489 63.8933 192.291 62.5695L192.294 62.5648C193.094 61.2402 191.54 60.2491 189.42 59.3651C187.299 58.481 185.414 58.0387 184.615 59.3633Z" fill="white"/>
<path d="M189.697 40.1057C190.802 35.6226 195.679 32.9844 200.59 34.2131C205.501 35.4418 208.587 40.0722 207.482 44.5553C206.377 49.0383 202.712 49.0528 197.801 47.8241C192.89 46.5954 188.592 44.5888 189.697 40.1057Z" fill="#E6E6E6"/>
<path d="M232.713 88H0.2873C0.211103 88 0.138027 87.9695 0.0841479 87.9152C0.0302688 87.8609 0 87.7873 0 87.7105C0 87.6337 0.0302688 87.5601 0.0841479 87.5058C0.138027 87.4515 0.211103 87.421 0.2873 87.421H232.713C232.789 87.421 232.862 87.4515 232.916 87.5058C232.97 87.5601 233 87.6337 233 87.7105C233 87.7873 232.97 87.8609 232.916 87.9152C232.862 87.9695 232.789 88 232.713 88Z" fill="#CBCBCB"/>
</g>
<defs>
<clipPath id="clip0_83_333">
<rect width="233" height="88" fill="white"/>
</clipPath>
</defs>
</svg>
